<?xml version="1.0" encoding="utf-8"?>
<!-- Generator: Adobe Illustrator 19.0.0, SVG Export Plug-In . SVG Version: 6.00 Build 0)  -->
<svg version="1.1" id="图层_1" xmlns="http://www.w3.org/2000/svg" xmlns:xlink="http://www.w3.org/1999/xlink" x="0px" y="0px"
	 width="32px" height="32px"
	 viewBox="0 0 32 32" style="enable-background:new 0 0 32 32;" xml:space="preserve">
<style type="text/css">
	.st0{fill:#757A80;}
</style>
<g id="XMLID_2_">
	<g id="XMLID_110_">
		<path id="XMLID_111_" class="st0" d="M5,25H3c0,2.5,4.4,4.6,10.2,4.9c-0.4-0.6-0.7-1.3-1-2.1C8.1,27.5,5,26.4,5,25z M15.6,19
			c-0.2,0-0.4,0-0.6,0c-5.5,0-10-1.3-10-3V9.8c2.1,1.3,5.8,2.2,10,2.2s7.9-0.9,10-2.2v4.5c0.7,0.2,1.4,0.5,2,0.8V7c0-2.8-5.4-5-12-5
			C8.4,2,3,4.2,3,7v18h2v-6.2c2,1.3,5.3,2.1,9.2,2.2c0.3-0.3,0.7-0.6,1.1-0.9C15.3,19.7,15.5,19.4,15.6,19z M15,4c5.5,0,10,1.3,10,3
			s-4.5,3-10,3C9.5,10,5,8.7,5,7S9.5,4,15,4z M28,22.1c0,0,0-0.1,0-0.1c0-2.8-2.2-5-5-5s-5,2.2-5,5c0,0,0,0.1,0,0.1
			c-1.7,0.4-3,2-3,3.9c0,2.2,1.8,4,4,4h8c2.2,0,4-1.8,4-4C31,24.1,29.7,22.6,28,22.1z M27,28h-8c-1.1,0-2-0.9-2-2
			c0-0.9,0.6-1.7,1.5-1.9l1.5-0.4l0-1.6c0-0.1,0-0.1,0-0.2c0-1.6,1.4-2.9,3-2.9c1.6,0,2.9,1.3,3,2.9c0,0.1,0,0.1,0,0.2l0,1.6
			l1.5,0.4c0.9,0.2,1.5,1,1.5,1.9C29,27.1,28.1,28,27,28z"/>
	</g>
</g>
</svg>
