<?xml version="1.0" encoding="utf-8"?>
<!-- Generator: Adobe Illustrator 19.0.0, SVG Export Plug-In . SVG Version: 6.00 Build 0)  -->
<svg version="1.1" id="图层_1" xmlns="http://www.w3.org/2000/svg" xmlns:xlink="http://www.w3.org/1999/xlink" x="0px" y="0px"
	 width="32px" height="32px" viewBox="0 0 32 32" style="enable-background:new 0 0 32 32;" xml:space="preserve">
<style type="text/css">
	.st0{fill-rule:evenodd;clip-rule:evenodd;fill:#747A81;}
</style>
<g>
	<g id="XMLID_63_">
		<path id="XMLID_64_" class="st0" d="M20,14.1c0,0.6,0,1.2,0,1.9s0,1.3,0,1.9c0.7,0,1.4-0.1,2-0.2c0-0.6,0-1.1,0-1.7s0-1.1,0-1.7
			C21.3,14.2,20.7,14.2,20,14.1z M16,1C7.7,1,1,7.7,1,16s6.7,15,15,15s15-6.7,15-15S24.3,1,16,1z M28.6,12.7c-1.7-1-4.1-1.8-7-2.3
			c-0.5-2.9-1.3-5.3-2.3-7C23.8,4.6,27.4,8.2,28.6,12.7z M3.4,19.3c1.3,0.8,3,1.4,4.9,1.9c-0.1-0.6-0.2-1.3-0.2-2
			C5,18.5,3,17.3,3,16c0-1.3,2-2.5,5.1-3.2c0.1-0.7,0.1-1.3,0.2-2c-2,0.5-3.7,1.1-4.9,1.9c1.2-4.6,4.8-8.1,9.3-9.3
			C11.1,6.1,10,10.7,10,16s1.1,9.9,2.7,12.6C8.2,27.4,4.6,23.8,3.4,19.3z M19.3,28.6c1-1.7,1.8-4.1,2.3-7c2.9-0.5,5.3-1.3,7-2.3
			C27.4,23.8,23.8,27.4,19.3,28.6z M28.9,16.5c0,0.1-0.1,0.2-0.1,0.3c0,0,0,0.1,0,0.1c-0.1,0.1-0.2,0.2-0.3,0.3c0,0-0.1,0.1-0.1,0.1
			c-0.1,0.1-0.2,0.1-0.3,0.2c-0.1,0-0.1,0.1-0.2,0.1c-0.1,0.1-0.2,0.2-0.4,0.2c-0.1,0.1-0.2,0.1-0.3,0.2c-0.1,0.1-0.2,0.1-0.3,0.2
			c-0.1,0.1-0.2,0.1-0.3,0.2c-0.1,0-0.2,0.1-0.3,0.1c-0.5,0.2-1,0.4-1.5,0.5c-0.1,0-0.1,0-0.2,0c-0.6,0.2-1.3,0.3-2,0.5c0,0,0,0,0,0
			c-0.3,0-0.5,0.1-0.8,0.1c0,0,0,0,0,0c-0.6,0.1-1.3,0.2-2,0.3c0,0,0,0,0,0c-0.5,0.1-1.1,0.1-1.7,0.1c-0.1,0-0.3,0-0.4,0
			c-0.6,0-1.2,0-1.8,0c-0.6,0-1.2,0-1.8,0c0.1,0.7,0.2,1.4,0.3,2c0.5,0,1,0,1.5,0c1.2,0,2.4-0.1,3.6-0.2c-0.7,4.3-2,7.2-3.6,7.2
			c-2.2,0-4-5.8-4-13s1.8-13,4-13c1.6,0,2.9,2.9,3.6,7.2C18.4,10.1,17.2,10,16,10c-0.5,0-1,0-1.5,0c-0.1,0.6-0.2,1.3-0.3,2
			c0.6,0,1.2,0,1.8,0c0.6,0,1.2,0,1.8,0c0.1,0,0.3,0,0.4,0c0.6,0,1.1,0.1,1.7,0.1c0,0,0,0,0,0c0.7,0.1,1.4,0.2,2,0.3c0,0,0,0,0,0
			c0.3,0,0.5,0.1,0.8,0.1c0,0,0,0,0,0c0.7,0.1,1.4,0.3,2,0.5c0.1,0,0.1,0,0.2,0c0.6,0.2,1.1,0.3,1.5,0.5c0.1,0,0.2,0.1,0.3,0.1
			c0.1,0,0.2,0.1,0.3,0.2c0.1,0.1,0.2,0.1,0.3,0.2c0.1,0.1,0.2,0.1,0.3,0.2c0.1,0.1,0.3,0.2,0.4,0.2c0.1,0,0.1,0.1,0.2,0.1
			c0.1,0.1,0.2,0.1,0.3,0.2c0,0,0.1,0.1,0.1,0.1c0.1,0.1,0.2,0.2,0.3,0.3c0,0,0,0.1,0,0.1c0.1,0.1,0.1,0.2,0.1,0.3c0,0,0,0.1,0,0.1
			c0,0.1,0.1,0.2,0.1,0.4s0,0.2-0.1,0.4C28.9,16.4,28.9,16.4,28.9,16.5z"/>
	</g>
</g>
</svg>
