<?xml version="1.0" encoding="utf-8"?>
<!-- Generator: Adobe Illustrator 19.0.0, SVG Export Plug-In . SVG Version: 6.00 Build 0)  -->
<svg version="1.1" id="图层_1" xmlns="http://www.w3.org/2000/svg" xmlns:xlink="http://www.w3.org/1999/xlink" x="0px" y="0px"
	 width="32px" height="32px"
	 viewBox="0 0 32 32" style="enable-background:new 0 0 32 32;" xml:space="preserve">
<style type="text/css">
	.st0{fill:#757A80;}
</style>
<g id="XMLID_11_">
	<g id="XMLID_65_">
		<path id="XMLID_66_" class="st0" d="M13,21h6h2h0v-8h-1v-1c0-2.2-1.8-4-4-4c-2.2,0-4,1.8-4,4v1h-1v0h0v2h0v4h0v2h0H13z M13,13h1
			v-1c0-1.1,0.9-2,2-2s2,0.9,2,2v1h1v0L13,13L13,13z M13,15h6v4h-6V15z M3,2v15.2C3,17.2,3.1,28,16,31c12.9-3,13-13.8,13-13.8V2H3z
			 M27,17.2c0,0,0,2.3-1.4,4.8c-1.8,3.4-5.1,5.7-9.6,6.9C5.3,26.2,5,17.6,5,17.2V4h22V17.2z"/>
	</g>
</g>
</svg>
